<?xml version="1.0" standalone="no"?>
<!DOCTYPE svg PUBLIC "-//W3C//DTD SVG 20010904//EN"
 "http://www.w3.org/TR/2001/REC-SVG-20010904/DTD/svg10.dtd">
<svg version="1.0" xmlns="http://www.w3.org/2000/svg"
 width="512.000000pt" height="512.000000pt" viewBox="0 0 512.000000 512.000000"
 preserveAspectRatio="xMidYMid meet">

<g transform="translate(0.000000,512.000000) scale(0.100000,-0.100000)"
fill="#000000" stroke="none">
<path d="M2442 4845 c-235 -51 -412 -268 -412 -503 0 -95 24 -175 90 -293 114
-205 139 -301 140 -527 l0 -153 -55 109 c-110 217 -236 326 -437 382 -70 19
-100 20 -858 20 -783 0 -785 0 -820 -21 -78 -48 -109 -134 -76 -214 41 -97
184 -264 295 -344 67 -48 1104 -681 1109 -677 1 2 -9 28 -23 58 -48 105 -68
203 -68 333 0 122 12 185 48 255 27 52 95 120 150 148 44 24 61 27 150 27 89
0 105 -3 150 -27 75 -40 124 -95 195 -222 64 -113 66 -115 145 -164 106 -67
201 -113 306 -150 l87 -31 88 33 c96 36 246 108 335 162 51 31 62 44 119 145
106 190 181 248 329 257 222 12 371 -154 371 -413 0 -135 -31 -277 -83 -379
l-19 -40 24 16 c13 9 249 152 524 319 274 166 531 325 569 354 129 95 285 288
301 371 13 73 -22 147 -87 183 -36 21 -48 21 -820 21 -871 0 -848 1 -989 -68
-57 -27 -96 -57 -160 -122 -78 -77 -93 -99 -163 -235 l-76 -150 -1 165 c0 251
32 373 145 560 92 152 119 273 91 408 -42 201 -205 365 -403 407 -83 18 -129
18 -211 0z"/>
<path d="M1620 3319 c-100 -45 -132 -103 -138 -246 -11 -262 110 -477 375
-667 59 -42 492 -255 751 -370 385 -170 532 -260 532 -327 0 -20 -8 -30 -32
-42 -47 -22 -113 -43 -209 -67 -46 -12 -102 -26 -124 -32 l-39 -10 139 -53
c201 -76 364 -152 498 -232 l57 -35 40 32 c93 74 154 164 197 290 23 67 25 86
21 185 -4 86 -11 124 -31 177 -54 142 -138 243 -298 362 -53 39 -104 76 -114
81 -15 9 -7 18 56 67 227 175 341 378 341 612 0 126 -14 171 -71 226 -95 93
-218 93 -311 0 -46 -45 -70 -99 -70 -156 0 -119 -100 -219 -332 -332 -114 -56
-275 -122 -295 -122 -20 0 -297 117 -361 152 -196 109 -255 175 -271 306 -10
83 -27 117 -80 165 -65 59 -151 72 -231 36z"/>
<path d="M1679 2225 c-84 -67 -148 -156 -186 -259 -58 -160 -71 -319 -34 -428
60 -180 204 -312 421 -384 137 -46 258 -68 630 -114 426 -53 552 -84 663 -162
84 -59 128 -232 98 -385 -5 -24 -5 -43 0 -43 20 0 93 91 124 155 105 215 80
416 -68 552 -96 89 -409 217 -953 391 -404 129 -414 134 -380 186 20 32 159
123 288 191 l103 54 -45 19 c-178 77 -424 189 -500 227 -49 25 -93 45 -97 45
-5 0 -33 -20 -64 -45z"/>
<path d="M2470 1808 c-47 -22 -96 -44 -110 -50 -22 -9 -15 -13 75 -39 55 -16
111 -29 124 -29 21 0 211 48 220 56 3 3 -178 89 -207 98 -9 2 -55 -13 -102
-36z"/>
<path d="M1705 1013 c-29 -69 -37 -123 -33 -212 4 -78 9 -99 41 -163 37 -75
106 -172 129 -181 10 -3 13 25 13 122 0 107 4 134 23 182 30 75 105 151 172
176 l51 19 -131 28 c-72 15 -156 36 -187 47 -31 10 -58 19 -59 19 -2 0 -11
-17 -19 -37z"/>
<path d="M2291 863 l-33 -4 4 -192 c3 -168 6 -198 24 -237 82 -177 313 -221
449 -85 70 71 79 105 83 319 3 150 1 190 -10 197 -13 9 -450 10 -517 2z"/>
</g>
</svg>
