<?xml version="1.0" standalone="no"?>
<!DOCTYPE svg PUBLIC "-//W3C//DTD SVG 20010904//EN"
 "http://www.w3.org/TR/2001/REC-SVG-20010904/DTD/svg10.dtd">
<svg version="1.0" xmlns="http://www.w3.org/2000/svg"
 width="512.000000pt" height="512.000000pt" viewBox="0 0 512.000000 512.000000"
 preserveAspectRatio="xMidYMid meet">

<g transform="translate(0.000000,512.000000) scale(0.100000,-0.100000)"
fill="#000000" stroke="none">
<path d="M882 4781 c-102 -38 -200 -135 -233 -229 -8 -23 -38 -52 -107 -105
-402 -301 -591 -702 -528 -1115 77 -501 492 -1018 1270 -1580 68 -48 91 -72
106 -105 10 -23 46 -152 80 -287 95 -380 164 -564 265 -705 101 -142 249 -242
442 -302 82 -25 101 -27 273 -27 217 0 296 15 445 89 254 124 400 333 535 765
149 478 172 532 256 610 l47 43 24 -27 c15 -18 23 -40 23 -64 0 -55 26 -148
62 -222 48 -99 169 -216 278 -268 107 -51 203 -72 323 -72 190 0 339 62 473
195 141 140 199 278 199 475 0 197 -58 336 -199 475 -134 133 -284 195 -471
195 -208 0 -397 -91 -525 -253 -44 -55 -46 -57 -95 -57 -76 -1 -178 -25 -253
-62 -99 -48 -222 -174 -284 -293 -59 -115 -83 -179 -152 -411 -109 -363 -177
-519 -272 -614 -100 -102 -230 -150 -408 -150 -366 0 -536 206 -630 760 -46
274 -35 312 138 443 752 569 1128 1133 1103 1652 -8 165 -39 281 -115 430
-103 205 -279 392 -515 549 -52 35 -94 71 -103 88 -22 42 -92 116 -135 144
-52 32 -133 54 -203 54 -212 0 -378 -167 -378 -380 0 -213 163 -379 373 -380
112 0 187 29 266 103 31 29 34 30 60 16 50 -26 220 -203 271 -282 151 -233
160 -483 27 -764 -42 -89 -126 -225 -168 -270 l-20 -23 -898 0 -898 0 -65 98
c-81 121 -150 265 -177 368 -27 105 -35 236 -19 305 30 130 145 317 290 471
l76 82 62 -41 c75 -50 140 -67 242 -61 138 8 252 86 313 216 29 61 32 76 32
162 0 86 -3 101 -31 160 -39 83 -101 145 -184 184 -85 40 -205 47 -288 17z
m1218 -2314 c0 -2 -46 -44 -102 -93 -134 -117 -309 -252 -360 -276 -56 -27
-153 -26 -208 2 -65 33 -309 226 -445 352 -19 17 -2 18 548 18 312 0 567 -1
567 -3z m2444 -252 c116 -30 213 -119 257 -233 26 -70 30 -198 7 -252 l-15
-35 -6 64 c-24 223 -222 363 -432 307 -142 -37 -244 -165 -248 -311 -1 -36 -3
-65 -5 -65 -6 0 -24 59 -32 105 -17 110 23 235 102 317 99 101 235 139 372
103z"/>
</g>
</svg>
