<?xml version="1.0" standalone="no"?>
<!DOCTYPE svg PUBLIC "-//W3C//DTD SVG 20010904//EN"
 "http://www.w3.org/TR/2001/REC-SVG-20010904/DTD/svg10.dtd">
<svg version="1.0" xmlns="http://www.w3.org/2000/svg"
 width="512.000000pt" height="512.000000pt" viewBox="0 0 512.000000 512.000000"
 preserveAspectRatio="xMidYMid meet">

<g transform="translate(0.000000,512.000000) scale(0.100000,-0.100000)"
fill="#000000" stroke="none">
<path d="M2490 5110 c-326 -10 -442 -30 -590 -105 -129 -65 -261 -188 -315
-294 -69 -136 -104 -353 -79 -488 19 -105 79 -189 162 -230 54 -26 64 -28 187
-27 139 0 252 21 384 71 139 52 187 90 280 222 85 120 159 193 231 228 49 25
67 28 185 31 343 10 676 -99 917 -302 263 -221 405 -593 368 -961 -63 -627
-508 -1124 -1190 -1328 -88 -26 -307 -77 -331 -77 -8 0 22 17 66 37 458 209
733 603 795 1138 14 129 13 259 -4 300 -71 170 -929 293 -1836 264 -487 -16
-874 -67 -1116 -149 -93 -32 -137 -55 -173 -94 -23 -25 -24 -28 -18 -158 20
-485 270 -929 686 -1222 69 -49 238 -138 316 -167 l60 -23 -57 -17 c-77 -23
-122 -52 -164 -107 -97 -127 -75 -287 54 -402 87 -78 226 -140 410 -185 72
-17 73 -18 70 -47 -3 -29 -7 -32 -88 -55 -332 -95 -599 -359 -700 -691 -21
-68 -21 -74 -6 -97 42 -64 249 -122 566 -157 152 -17 698 -16 850 0 332 37
530 95 566 164 15 28 14 35 -11 111 -53 160 -131 285 -254 408 l-86 87 24 53
c36 79 36 175 -2 249 -50 101 -118 158 -276 233 l-110 53 157 12 c401 32 681
91 970 204 672 262 1153 816 1292 1488 31 149 39 423 16 580 -81 558 -410
1007 -920 1254 -287 139 -606 209 -931 204 -66 -1 -226 -5 -355 -8z m-15
-1691 c550 -41 858 -151 700 -249 -100 -62 -336 -110 -695 -142 -189 -16 -801
-17 -985 0 -443 40 -699 103 -734 179 -48 106 365 201 989 227 132 5 580 -4
725 -15z"/>
</g>
</svg>
