<?xml version="1.0" standalone="no"?>
<!DOCTYPE svg PUBLIC "-//W3C//DTD SVG 20010904//EN"
 "http://www.w3.org/TR/2001/REC-SVG-20010904/DTD/svg10.dtd">
<svg version="1.0" xmlns="http://www.w3.org/2000/svg"
 width="512.000000pt" height="512.000000pt" viewBox="0 0 512.000000 512.000000"
 preserveAspectRatio="xMidYMid meet">

<g transform="translate(0.000000,512.000000) scale(0.100000,-0.100000)"
fill="#000000" stroke="none">
<path d="M2424 5106 c-105 -24 -201 -71 -289 -141 -22 -17 -76 -51 -120 -74
-199 -106 -384 -293 -484 -488 l-21 -43 195 0 195 0 6 -27 c13 -58 16 -70 36
-123 25 -63 78 -152 116 -192 l26 -28 -337 0 -337 0 0 -109 c0 -184 37 -345
116 -504 97 -198 255 -370 437 -480 l59 -35 -280 -3 c-154 -2 -283 -7 -287
-11 -10 -10 22 -147 57 -248 154 -437 464 -706 909 -786 133 -24 389 -24 495
-2 179 39 341 110 470 206 216 160 367 397 450 707 13 49 20 92 16 96 -19 18
-175 31 -459 36 l-312 6 55 33 c95 57 147 99 237 193 141 146 236 314 283 499
26 104 42 253 36 344 l-4 58 -320 2 -321 3 37 44 c47 56 111 189 127 264 l12
57 184 0 183 0 -29 58 c-93 183 -285 377 -462 467 -25 13 -70 45 -100 70 -70
60 -156 108 -244 135 -90 28 -246 35 -331 16z m277 -196 c200 -61 339 -248
339 -455 0 -224 -151 -415 -371 -469 -114 -28 -214 -15 -329 42 -65 32 -156
119 -195 185 -34 59 -65 173 -65 242 0 200 144 392 340 455 77 25 201 25 281
0z"/>
<path d="M2480 4659 c-111 -45 -170 -187 -121 -294 36 -80 101 -124 190 -132
48 -4 64 -1 111 24 75 40 112 94 118 172 2 32 -1 75 -8 96 -16 49 -66 104
-115 126 -44 20 -134 24 -175 8z"/>
<path d="M1180 2800 c-337 -108 -555 -369 -629 -755 -20 -102 -21 -139 -21
-1076 l0 -969 2033 0 2032 0 -3 957 c-2 1038 -4 1062 -58 1234 -77 245 -238
445 -442 548 -24 12 -45 21 -47 19 -2 -2 -15 -50 -30 -108 -160 -609 -602
-1003 -1213 -1081 -53 -7 -100 -17 -104 -23 -14 -20 -8 -51 22 -114 23 -48 56
-89 152 -185 167 -165 218 -263 218 -417 0 -250 -198 -481 -482 -564 -187 -54
-410 -39 -623 41 l-50 19 -47 -32 c-171 -115 -397 -4 -398 196 0 87 16 127 74
186 59 58 99 74 186 74 123 -1 215 -84 244 -222 6 -29 53 -51 181 -86 85 -24
299 -22 380 2 180 54 317 187 345 334 11 60 -4 144 -35 197 -13 22 -79 96
-147 165 -104 105 -131 138 -164 204 -32 65 -39 92 -42 152 l-4 72 -82 12
c-458 65 -813 331 -1016 764 -50 106 -101 255 -126 366 -8 36 -17 75 -19 88
-6 26 -12 26 -85 2z"/>
</g>
</svg>
