<?xml version="1.0" standalone="no"?>
<!DOCTYPE svg PUBLIC "-//W3C//DTD SVG 20010904//EN"
 "http://www.w3.org/TR/2001/REC-SVG-20010904/DTD/svg10.dtd">
<svg version="1.0" xmlns="http://www.w3.org/2000/svg"
 width="512.000000pt" height="512.000000pt" viewBox="0 0 512.000000 512.000000"
 preserveAspectRatio="xMidYMid meet">

<g transform="translate(0.000000,512.000000) scale(0.100000,-0.100000)"
fill="#000000" stroke="none">
<path d="M922 4454 c-330 -55 -636 -278 -792 -576 -72 -137 -105 -249 -122
-411 -35 -338 91 -675 343 -912 441 -417 1132 -401 1553 35 250 260 358 598
301 949 -98 605 -676 1017 -1283 915z m369 -918 l487 -13 45 -26 c81 -48 109
-146 66 -234 -23 -48 -57 -76 -109 -90 -23 -7 -253 -4 -680 7 -699 19 -687 18
-742 76 -91 98 -43 264 86 294 17 4 105 6 196 3 91 -3 384 -10 651 -17z"/>
<path d="M3970 4454 c-164 -17 -299 -53 -415 -111 -133 -67 -283 -190 -370
-303 -40 -52 -1114 -1637 -1182 -1745 -117 -183 -176 -439 -153 -659 40 -390
260 -708 605 -877 456 -223 1018 -91 1324 311 82 107 1157 1699 1208 1789 51
89 99 232 119 351 91 553 -285 1102 -835 1220 -87 19 -237 31 -301 24z m265
-295 c33 -6 72 -17 87 -25 81 -42 113 -164 65 -246 -15 -26 -42 -53 -67 -67
-39 -22 -49 -23 -139 -17 -81 6 -106 4 -161 -13 -147 -46 -209 -107 -422 -421
-91 -135 -176 -256 -188 -269 -69 -72 -194 -63 -263 18 -33 40 -41 68 -35 133
5 45 22 75 174 300 93 138 195 280 226 318 185 220 474 335 723 289z m-1028
-1405 c98 -66 303 -205 456 -308 299 -203 325 -227 334 -310 10 -87 0 -106
-234 -455 -271 -403 -297 -437 -379 -505 -357 -294 -903 -176 -1104 239 -52
106 -72 197 -72 320 1 123 27 230 81 329 39 73 467 712 505 755 38 42 94 62
168 58 l68 -3 177 -120z"/>
</g>
</svg>
