<?xml version="1.0" standalone="no"?>
<!DOCTYPE svg PUBLIC "-//W3C//DTD SVG 20010904//EN"
 "http://www.w3.org/TR/2001/REC-SVG-20010904/DTD/svg10.dtd">
<svg version="1.0" xmlns="http://www.w3.org/2000/svg"
 width="512.000000pt" height="512.000000pt" viewBox="0 0 512.000000 512.000000"
 preserveAspectRatio="xMidYMid meet">

<g transform="translate(0.000000,512.000000) scale(0.100000,-0.100000)"
fill="#000000" stroke="none">
<path d="M420 3328 c0 -1966 -3 -1862 60 -2057 68 -210 174 -384 316 -521 154
-148 293 -219 527 -270 73 -16 519 -123 992 -238 473 -116 887 -215 920 -221
164 -30 335 -24 498 19 354 93 654 372 780 726 14 39 60 228 103 420 76 344
77 351 78 494 0 150 -8 205 -49 345 -88 294 -331 568 -618 699 -102 47 -191
73 -529 153 l-288 68 0 1087 0 1088 -1395 0 -1395 0 0 -1792z m2370 1207 l0
-165 -980 0 -980 0 0 165 0 165 980 0 980 0 0 -165z m-2 -446 l-3 -81 -975
-394 c-536 -217 -976 -394 -977 -394 -2 0 -3 214 -3 475 l0 475 980 0 981 0
-3 -81z m0 -1055 c-2 -1 -433 -82 -958 -179 -525 -97 -965 -179 -978 -182
l-22 -5 0 165 0 164 978 395 977 395 3 -375 c1 -206 1 -376 0 -378z m-88 -242
c-13 -9 -438 -297 -945 -638 l-920 -622 -3 461 c-1 253 0 463 3 466 6 6 1839
349 1870 349 18 1 18 -1 -5 -16z m421 -246 c171 -41 313 -76 315 -78 3 -4
-1926 -1575 -1953 -1591 -24 -14 -174 23 -260 64 -129 62 -256 202 -316 349
l-15 35 957 647 c526 355 957 647 958 647 2 1 143 -32 314 -73z m640 -157
c158 -52 281 -142 391 -288 15 -20 28 -41 28 -48 0 -10 -1137 -933 -1161 -941
-5 -2 -9 138 -8 370 l0 373 342 277 c188 153 342 278 343 278 0 0 29 -9 65
-21z m509 -556 c0 -5 5 -42 10 -83 7 -51 7 -100 0 -153 -19 -133 -138 -663
-165 -728 -73 -181 -234 -338 -415 -408 -165 -63 -297 -65 -538 -6 l-152 37 0
173 0 173 623 501 c342 275 625 501 630 501 4 0 7 -3 7 -7z m-1460 -724 c0
-453 -3 -570 -12 -566 -7 2 -250 62 -540 133 -291 70 -528 130 -527 134 0 7
1062 869 1072 870 4 0 7 -257 7 -571z"/>
</g>
</svg>
